<svg width="815" height="408" viewBox="0 0 815 408" fill="none" xmlns="http://www.w3.org/2000/svg">
<path fill-rule="evenodd" clip-rule="evenodd" d="M-51.5421 664.232L-51.4758 664.548C11.0463 651.456 69.5002 638.135 123.92 624.498C329.286 578.324 487.9 528.887 600.984 473.282C747.369 401.303 817.804 318.805 814.129 219.382C812.294 169.735 791.973 116.012 753.63 57.4488C715.286 -1.11761 658.882 -64.5824 584.792 -133.729C436.614 -272.022 217.58 -433.146 -69.5312 -623.373L-70.6359 -621.706C216.455 -431.492 435.375 -270.442 583.428 -132.267C657.453 -63.1804 713.733 0.161377 751.957 58.5443C790.183 116.93 810.314 170.299 812.13 219.456C815.759 317.642 746.296 399.602 600.102 471.487C500.667 520.38 365.895 564.528 194.896 605.898C219.159 599.24 242.504 592.5 264.936 585.67C384.149 552.61 481.403 517.56 557.108 479.527C695.713 409.894 762.406 330.081 758.927 233.9C757.19 185.873 737.949 133.902 701.646 77.2498C665.341 20.5947 611.938 -40.7983 541.791 -107.687C401.499 -241.462 194.124 -397.322 -77.7021 -581.332L-78.8232 -579.676C192.982 -395.68 400.244 -239.895 540.411 -106.239C610.494 -39.412 663.775 21.8571 699.962 78.3289C736.151 134.803 755.208 186.425 756.928 233.972C760.364 328.941 694.607 408.211 556.21 477.74C495.365 508.308 420.543 536.958 331.515 564.206C400.399 540.644 459.064 515.947 507.649 489.751C629.687 423.952 688.392 348.536 685.33 257.685C682.273 166.993 617.642 61.3228 494.196 -65.0083C370.706 -191.384 188.169 -338.621 -51.093 -512.446L-52.2686 -510.828C186.971 -337.019 369.397 -189.862 492.765 -63.6105C616.177 62.6855 680.301 167.876 683.331 257.753C686.355 347.47 628.478 422.331 506.7 487.991C443.291 522.179 362.628 553.83 264.379 583.749C222.704 595.305 178.337 606.621 131.259 617.737C267.405 580.473 374.313 540.657 452.67 496.389C564.732 433.079 618.628 360.52 615.817 273.13C613.01 185.89 553.674 84.2361 440.338 -37.2944C326.963 -158.865 159.38 -300.502 -60.2762 -467.714L-61.4877 -466.123C158.147 -298.928 325.62 -157.374 438.875 -35.9303C552.168 85.5535 611.036 186.737 613.818 273.194C616.594 359.502 563.46 431.501 451.686 494.648C376.638 537.046 275.257 575.389 146.884 611.336C251.665 579.13 335.201 544.806 397.941 507.024C496.576 447.625 544 379.551 541.527 297.589C539.057 215.764 486.846 120.416 387.116 6.42377C287.354 -107.603 139.897 -240.449 -53.3766 -397.278L-54.6367 -395.725C138.613 -238.914 285.964 -106.155 385.61 7.74066C485.287 121.672 537.081 216.564 539.528 297.65C541.971 378.598 495.222 446.105 396.909 505.31C318.907 552.284 208.562 593.951 64.9084 632.88C19.4166 642.923 -28.3661 652.815 -78.4542 662.588L-78.0711 664.551C-75.4379 664.037 -72.8111 663.523 -70.1906 663.009L-69.896 664.552C-66.936 663.987 -63.9836 663.421 -61.0388 662.855L-60.6677 664.546C-58.494 664.069 -56.3257 663.592 -54.1628 663.115L-53.7789 664.756C-53.0326 664.581 -52.287 664.407 -51.5421 664.232ZM19.3792 646.908C23.8936 645.984 28.3884 645.059 32.8636 644.132C25.5808 645.784 18.2355 647.432 10.8276 649.076C13.69 648.354 16.5405 647.632 19.3792 646.908ZM123.461 622.551C102.343 627.299 80.729 632.013 58.6182 636.695C62.8387 635.643 67.0347 634.589 71.2062 633.534C107.206 625.541 141.764 617.45 174.886 609.246C158.165 613.715 141.024 618.15 123.461 622.551Z" fill="#E94560"/>
<path d="M319.675 507.024C221.061 566.41 71.0714 617.25 -132.045 664.756L-132.5 662.808C70.5728 615.313 220.308 564.528 318.643 505.31C416.957 446.105 463.705 378.598 461.262 297.65C458.815 216.564 407.022 121.672 307.345 7.74066C207.699 -106.155 60.3478 -238.914 -132.902 -395.725L-131.642 -397.278C61.6309 -240.449 209.089 -107.603 308.85 6.42377C408.58 120.416 460.792 215.764 463.261 297.589C465.735 379.551 418.31 447.625 319.675 507.024Z" fill="#E94560"/>
<path d="M-206.079 664.756C-2.9628 617.25 147.027 566.41 245.641 507.024C344.276 447.625 391.701 379.551 389.227 297.589C386.758 215.764 334.546 120.416 234.816 6.42377C135.055 -107.603 -12.4033 -240.449 -205.676 -397.278L-206.937 -395.725C-13.6864 -238.914 133.664 -106.155 233.31 7.74066C332.987 121.672 384.781 216.564 387.228 297.65C389.671 378.598 342.923 446.105 244.609 505.31C146.274 564.528 -3.46143 615.313 -206.534 662.808L-206.079 664.756Z" fill="#E94560"/>
<path d="M173.721 507.024C75.1072 566.41 -74.8822 617.251 -277.998 664.756L-278.454 662.808C-75.3809 615.313 74.3549 564.528 172.69 505.311C271.003 446.106 317.751 378.598 315.309 297.65C312.862 216.564 261.068 121.672 161.391 7.74078C61.7451 -106.155 -85.6058 -238.914 -278.856 -395.725L-277.596 -397.278C-84.3227 -240.449 63.1352 -107.603 162.896 6.42389C262.626 120.416 314.838 215.764 317.308 297.589C319.781 379.552 272.357 447.625 173.721 507.024Z" fill="#E94560"/>
<path d="M-330.88 664.756C-127.764 617.25 22.2254 566.41 120.84 507.024C219.475 447.625 266.899 379.551 264.426 297.589C261.956 215.764 209.745 120.416 110.014 6.42377C10.2534 -107.603 -137.205 -240.449 -330.478 -397.278L-331.738 -395.725C-138.488 -238.914 8.86322 -106.155 108.509 7.74066C208.186 121.672 259.98 216.564 262.427 297.65C264.87 378.598 218.121 446.105 119.808 505.31C21.473 564.528 -128.263 615.313 -331.335 662.808L-330.88 664.756Z" fill="#E94560"/>
<path d="M0 0H382.25C382.25 0 409.282 30.6 426.196 52.02C443.11 73.44 443.529 73.44 465.961 106.08C488.392 138.72 507.534 167.522 523.478 212.16C531.539 234.729 536.936 248.79 539.792 273.36C542.229 294.331 542.796 309.613 539.792 332.52C537.776 347.891 536.651 356.762 531.216 371.28C525.464 386.642 510.823 408 510.823 408H0V0Z" fill="#E94560"/>
</svg>
