<svg width="16" height="15" viewBox="0 0 16 15" fill="none" xmlns="http://www.w3.org/2000/svg">
<path d="M13.3333 1.66667V0H12.2222V1.66667H10V0H8.88889V1.66667H6.66667V0H5.55556V1.66667H3.33333V0H2.22222V1.66667H0V15H15.5556V1.66667H13.3333ZM2.22222 2.77778V3.88889H3.33333V2.77778H5.55556V3.88889H6.66667V2.77778H8.88889V3.88889H10V2.77778H12.2222V3.88889H13.3333V2.77778H14.4444V5H1.11111V2.77778H2.22222ZM1.11111 13.8889V6.11111H14.4444V13.8889H1.11111Z" fill="#F5F3F5"/>
<path d="M5.55556 8.33333H6.66667V9.44444H5.55556V8.33333ZM7.77778 8.33333H8.88889V9.44444H7.77778V8.33333ZM10 8.33333H11.1111V9.44444H10V8.33333ZM3.33333 10.5556H4.44444V11.6667H3.33333V10.5556ZM5.55556 10.5556H6.66667V11.6667H5.55556V10.5556ZM7.77778 10.5556H8.88889V11.6667H7.77778V10.5556Z" fill="#F5F3F5"/>
</svg>
