<svg width="563" height="633" viewBox="0 0 563 633" fill="none" xmlns="http://www.w3.org/2000/svg">
<path d="M136.556 0.804443L136.744 0C137.106 0.0846558 137.468 0.169373 137.829 0.254089L137.862 0.0991211C168.524 6.5174 197.194 13.0482 223.888 19.735C324.613 42.3732 402.435 66.6176 457.938 93.8985C529.771 129.206 564.559 169.784 562.746 218.836C561.841 243.297 551.827 269.722 532.995 298.475C514.161 327.231 486.47 358.373 450.121 392.283C377.424 460.104 269.984 539.105 129.184 632.357L128.08 630.69C268.86 537.451 376.186 458.524 448.756 390.821C485.041 356.97 512.608 325.952 531.322 297.379C550.038 268.804 559.861 242.733 560.747 218.762C562.515 170.947 528.699 130.907 457.056 95.6934C414.166 74.6121 357.842 55.326 287.777 37.1794C289.551 37.7101 291.313 38.2419 293.064 38.7749C351.545 54.9866 399.267 72.1783 436.426 90.8392C504.448 125 537.393 164.262 535.675 211.719C534.819 235.384 525.337 260.948 507.505 288.765C489.672 316.584 463.453 346.71 429.038 379.514C360.209 445.12 258.486 521.542 125.182 611.746L124.061 610.09C257.345 519.899 358.954 443.553 427.658 378.066C462.009 345.323 488.106 315.321 505.822 287.685C523.539 260.047 532.838 234.832 533.677 211.646C535.35 165.402 503.343 126.683 435.528 92.6265C411.965 80.7931 384.118 69.5443 351.929 58.7561C374.672 67.4341 394.749 76.4368 412.185 85.8342C472.097 118.124 501.096 155.234 499.585 200.058C498.079 244.723 466.255 296.644 405.711 358.58C345.122 420.561 255.58 492.756 138.244 577.969L137.069 576.35C254.383 491.154 343.813 419.038 404.28 357.182C464.791 295.281 496.107 243.84 497.586 199.991C499.059 156.3 470.888 119.745 411.236 87.5948C380.178 70.8556 340.658 55.3535 292.507 40.6958C279.851 37.1879 266.689 33.725 253.017 30.3026C307.799 46.4821 351.801 63.705 385.233 82.5852C440.26 113.661 466.884 149.372 465.496 192.486C464.114 235.451 434.897 285.401 379.307 344.987C323.68 404.613 241.472 474.064 133.75 556.034L132.539 554.443C240.239 472.489 322.337 403.121 377.845 343.622C433.391 284.083 462.14 234.603 463.497 192.422C464.85 150.39 438.988 115.24 384.25 84.3267C354.274 67.3986 315.709 51.785 268.37 37.047C304.563 49.6721 334.543 63.0137 358.407 77.3793C406.858 106.546 430.287 140.059 429.066 180.495C427.849 220.794 402.139 267.65 353.219 323.544C304.268 379.473 231.93 444.616 137.146 521.497L135.886 519.944C230.647 443.081 302.878 378.025 351.714 322.227C400.58 266.394 425.872 219.995 427.067 180.435C428.257 141.013 405.505 108.065 357.375 79.0928C319.182 56.1013 265.125 35.6926 194.707 16.617C172.408 11.6959 148.985 6.84857 124.43 2.05939L124.813 0.0963745C126.103 0.348083 127.391 0.599976 128.675 0.852051L128.82 0.0956421C130.276 0.373596 131.728 0.651794 133.177 0.930176L133.359 0.101074C134.427 0.335388 135.493 0.569824 136.556 0.804443Z" fill="#E94560"/>
<path d="M320.027 77.3793C271.597 48.2257 197.979 23.2896 98.3636 0L97.9083 1.94751C197.481 25.2269 270.845 50.1074 318.995 79.0928C367.125 108.065 389.877 141.013 388.687 180.435C387.492 219.995 362.2 266.394 313.334 322.227C264.498 378.025 192.267 443.081 97.506 519.944L98.7659 521.497C193.55 444.616 265.888 379.473 314.839 323.544C363.759 267.65 389.469 220.794 390.686 180.495C391.907 140.059 368.478 106.546 320.027 77.3793Z" fill="#E94560"/>
<path d="M62.0582 0C161.674 23.2896 235.291 48.2257 283.721 77.3793C332.172 106.546 355.601 140.059 354.38 180.495C353.164 220.794 327.453 267.65 278.534 323.544C229.583 379.473 157.244 444.616 62.4605 521.497L61.2006 519.944C155.962 443.081 228.193 378.025 277.029 322.227C325.895 266.394 351.187 219.995 352.381 180.435C353.571 141.013 330.819 108.065 282.69 79.0928C234.539 50.1074 161.176 25.2269 61.6029 1.94751L62.0582 0Z" fill="#E94560"/>
<path d="M248.453 77.3793C200.023 48.2257 126.406 23.2896 26.7901 0L26.3348 1.94751C125.908 25.2269 199.271 50.1074 247.422 79.0928C295.551 108.065 318.303 141.013 317.113 180.435C315.919 219.995 290.627 266.394 241.76 322.227C192.925 378.025 120.694 443.081 25.9325 519.944L27.1924 521.497C121.976 444.616 194.315 379.473 243.265 323.544C292.185 267.65 317.896 220.794 319.112 180.495C320.333 140.059 296.904 106.546 248.453 77.3793Z" fill="#E94560"/>
<path d="M0.857605 0C100.473 23.2896 174.091 48.2257 222.521 77.3793C270.972 106.546 294.401 140.059 293.18 180.495C291.963 220.794 266.253 267.65 217.333 323.544C168.382 379.473 96.0439 444.616 1.25989 521.497L0 519.944C94.7611 443.081 166.992 378.025 215.828 322.227C264.694 266.394 289.986 219.995 291.181 180.435C292.371 141.013 269.619 108.065 221.489 79.0928C173.339 50.1074 99.9751 25.2269 0.402283 1.94751L0.857605 0Z" fill="#E94560"/>
</svg>
