<svg width="11" height="15" viewBox="0 0 11 15" fill="none" xmlns="http://www.w3.org/2000/svg">
<path d="M10.0894 3.73342C10.0361 3.53325 9.92755 3.32007 9.84739 3.1334C8.88753 0.826685 6.79032 0 5.09695 0C2.83006 0 0.333341 1.52003 0 4.65327V5.29345C0 5.32012 0.009167 5.56012 0.022334 5.68013C0.209171 7.17333 1.38736 8.76019 2.26738 10.2534C3.21407 11.8533 4.19643 13.427 5.16995 15C5.76996 13.9735 6.36798 12.9335 6.95449 11.9334C7.11433 11.6399 7.29966 11.3466 7.45967 11.0666C7.56633 10.8801 7.77001 10.6936 7.86317 10.5201C8.8097 8.7872 10.3336 7.04016 10.3336 5.32012V4.61344C10.3336 4.42693 10.1024 3.77358 10.0894 3.73342ZM5.13845 6.94682C4.4721 6.94682 3.74275 6.61365 3.38274 5.69346C3.32907 5.54696 3.33341 5.25345 3.33341 5.22662V4.81327C3.33341 3.64025 4.32943 3.10674 5.19595 3.10674C6.26264 3.10674 7.08782 3.96025 7.08782 5.02694C7.08782 6.09364 6.20514 6.94682 5.13845 6.94682Z" fill="#F5F3F5"/>
</svg>
