<svg width="16" height="24" viewBox="0 0 16 24" fill="none" xmlns="http://www.w3.org/2000/svg">
<path d="M8.0083 24C5.8083 24 4.0083 22.2 4.0083 20V18C4.0083 17.4 4.4083 17 5.0083 17H11.0083C11.6083 17 12.0083 17.4 12.0083 18V20C12.0083 22.2 10.2083 24 8.0083 24ZM6.0083 19V20C6.0083 21.1 6.9083 22 8.0083 22C9.1083 22 10.0083 21.1 10.0083 20V19H6.0083ZM5.0083 9C4.4083 9 4.0083 8.6 4.0083 8C4.0083 5.8 5.8083 4 8.0083 4C8.6083 4 9.0083 4.4 9.0083 5C9.0083 5.6 8.6083 6 8.0083 6C6.9083 6 6.0083 6.9 6.0083 8C6.0083 8.6 5.6083 9 5.0083 9Z" fill="#E94560"/>
<path d="M11.0084 19H5.00835C4.40835 19 4.00835 18.6 4.00835 18V17.5C4.00835 16.1 3.40835 14.7 2.30835 13.6C0.708351 12 -0.0916494 9.9 0.00835056 7.7C0.208351 3.5 3.70835 0.1 7.90835 0H8.00835C12.4084 0 16.0084 3.6 16.0084 8C16.0084 10.1 15.2084 12.2 13.6084 13.7C12.5084 14.7 12.0084 16.1 12.0084 17.5V18C12.0084 18.6 11.6084 19 11.0084 19ZM6.00835 17H10.0084C10.1084 15.2 10.9084 13.6 12.2084 12.2C13.4084 11.1 14.0084 9.6 14.0084 8C14.0084 4.7 11.3084 2 8.00835 2H7.90835C4.80835 2.1 2.10835 4.6 2.00835 7.8C1.90835 9.4 2.60835 11 3.70835 12.2C5.10835 13.6 5.90835 15.3 6.00835 17Z" fill="#E94560"/>
</svg>
